<mxfile host="Electron" agent="Mozilla/5.0 (Windows NT 10.0; Win64; x64) AppleWebKit/537.36 (KHTML, like Gecko) draw.io/27.0.9 Chrome/134.0.6998.205 Electron/35.4.0 Safari/537.36" version="27.0.9">
  <diagram name="ページ1" id="Yubs-ZDzkVwZioXWIiHt">
    <mxGraphModel dx="1950" dy="851" grid="1" gridSize="10" guides="1" tooltips="1" connect="1" arrows="1" fold="1" page="1" pageScale="1" pageWidth="827" pageHeight="1169" math="0" shadow="0">
      <root>
        <mxCell id="0" />
        <mxCell id="1" parent="0" />
        <mxCell id="99Vmx4YMKvBOmawWlfzG-26" value="" style="edgeStyle=orthogonalEdgeStyle;rounded=0;orthogonalLoop=1;jettySize=auto;html=1;entryX=0;entryY=0.5;entryDx=0;entryDy=0;" edge="1" parent="1" target="99Vmx4YMKvBOmawWlfzG-20">
          <mxGeometry relative="1" as="geometry">
            <mxPoint x="450" y="201" as="sourcePoint" />
            <mxPoint x="574" y="150" as="targetPoint" />
            <Array as="points">
              <mxPoint x="530" y="201" />
              <mxPoint x="530" y="160" />
            </Array>
          </mxGeometry>
        </mxCell>
        <mxCell id="99Vmx4YMKvBOmawWlfzG-37" value="過去の看護記録" style="edgeLabel;html=1;align=center;verticalAlign=middle;resizable=0;points=[];" vertex="1" connectable="0" parent="99Vmx4YMKvBOmawWlfzG-26">
          <mxGeometry x="-0.7266" y="-2" relative="1" as="geometry">
            <mxPoint x="7" y="-2" as="offset" />
          </mxGeometry>
        </mxCell>
        <mxCell id="99Vmx4YMKvBOmawWlfzG-12" value="" style="edgeStyle=orthogonalEdgeStyle;rounded=0;orthogonalLoop=1;jettySize=auto;html=1;entryX=0;entryY=0.5;entryDx=0;entryDy=0;" edge="1" parent="1" source="99Vmx4YMKvBOmawWlfzG-9" target="99Vmx4YMKvBOmawWlfzG-6">
          <mxGeometry relative="1" as="geometry">
            <mxPoint x="361.5" y="510" as="targetPoint" />
          </mxGeometry>
        </mxCell>
        <mxCell id="99Vmx4YMKvBOmawWlfzG-9" value="" style="rounded=1;whiteSpace=wrap;html=1;" vertex="1" parent="1">
          <mxGeometry x="80" y="435" width="161" height="150" as="geometry" />
        </mxCell>
        <mxCell id="99Vmx4YMKvBOmawWlfzG-6" value="" style="rounded=1;whiteSpace=wrap;html=1;" vertex="1" parent="1">
          <mxGeometry x="413" y="585" width="161" height="150" as="geometry" />
        </mxCell>
        <mxCell id="99Vmx4YMKvBOmawWlfzG-14" value="" style="edgeStyle=orthogonalEdgeStyle;rounded=0;orthogonalLoop=1;jettySize=auto;html=1;entryX=0;entryY=0.5;entryDx=0;entryDy=0;" edge="1" parent="1" source="99Vmx4YMKvBOmawWlfzG-3" target="99Vmx4YMKvBOmawWlfzG-6">
          <mxGeometry relative="1" as="geometry">
            <mxPoint x="401.5" y="795" as="targetPoint" />
          </mxGeometry>
        </mxCell>
        <mxCell id="99Vmx4YMKvBOmawWlfzG-3" value="" style="rounded=1;whiteSpace=wrap;html=1;" vertex="1" parent="1">
          <mxGeometry x="80" y="720" width="161" height="150" as="geometry" />
        </mxCell>
        <mxCell id="99Vmx4YMKvBOmawWlfzG-1" value="" style="shape=image;verticalLabelPosition=bottom;labelBackgroundColor=default;verticalAlign=top;aspect=fixed;imageAspect=0;image=data:image/png,iVBORw0KGgoAAAANSUhEUgAAAQIAAAECCAYAAAAVT9lQAAAAAXNSR0IArs4c6QAAAARnQU1BAACxjwv8YQUAAAAJcEhZcwAAFxEAABcRAcom8z8AABqKSURBVHhe7d1xcJ1Xfebx73NkJypxFrHIGy01xS1yKhol62DZVmadwd5QDDMwJbu0hAFMoAzQdrOB6XZKhm5bhmWgk+00WWBCuy2TBJhNadqkU2bB2bAKxWDJuiZZIhYTCzDFgMDKYjYOcWLpPPuHrmzpRLYlS5b1vvf3mcnE+v3OzR/Oex+de9/zngMhhBBCCCGEEEIIIYQQQgghhBBCCCGEEEIIIYQQQgghhBBCCCGEEEIIIYQQQgghhBBCCCGEEEIIIYQQQgghhBBCCKejshBagwe8inbWzSoe57B2aGJWLbSECIKK8IDbaafLq90FdGpSnSTWO/m5mE4o3tSmC2ifUemQ1DHj57OyfRQ4OqM0gTg842eAw8BRWY+TOeQ2jwsd5QSHOc6Yduh4MT6sQBEEK0AezOuU1GO5W6jL+OcRHUAnZj3QKWlN+boqsH0MGG8GxjgwLvR94zFZo84+kPpTGS5hmUUQLBOPeI2fdI9Qr1f5CjLdiG6gW2jmb+6WY3wcGMWMkhgl8y3EI2rXiHp1rBwfll4EwXngvV7vNvfTxiYyPUCvpPXluHB2tg8BIyQOkBnShBq6RofKcWFxIggWyQNu5xK2keizvRXYJqmzHBeWju1xYA+wX9Ygz2EwZg6LE0GwQB5yl3GfkvqcvAnTJ9RVjgvLx/YRoAEMYxqyhrVVY+W4cHoRBPPghjttvxbxemBbq3+mX+ma3zk8hPlbSferT+PlmDBbBMFpeMhdlm8g8WvNN/+qckxY+YwngD1k/l7WPTFTmFsEwQz5K/nndZF+1fgVwCuEnl+OCdVl/DjwgNADlh9Im9IPyjGtKoJg+lv+i3wzmTfFF32twfY4iU/pGd0edyFaPAjycH4F4nrgeqHLyn6ov+YXjffTxn3ppelzZb9VtGQQeMhdbvOtQm8qe6F1Gd/LBO9pxZWOLRUEbrjT2W9F3CjpV8p+CMbfxHxC0ida6W5DywRBbuRrhW4Cfr3shTCHv/GEP5L605fKRh21RBC44RuN/4PQ1WUvhNMxfljov6pPd5a9uql9EOTh/E7Eh4SeV/ZCOBvjn2DelzanO8penaSyUCe5kX8D+P0IgXCuhJ6HuCXvy28ue3VS2xlBHs4vRnxS6JqyF8JC2f7fJN6QNqVvlL06qO+MQLwxQiAsFUn/iswNZb0u6jwjOBKrBMNSsj2eNqe1Zb0OajkjcMM9EQJhqUnqdMM9Zb0O6hkEeEGbdIYwX3W9tmoZBIgf2n6mLIewGLafQfywrNdBLYMgbUrfBb5d1kNYpG83r63aqWUQNN1WFkJYFPHRslQXtb1rwNSdg2FJfWU9hIUyHtETurquJ0HVeUYA4ibMF8tyCAth/GXE79Q1BKj7jIDmrUTjgdhpOJwL4zGhHerTgbJXJ/WeEQDq0wHE623fV/ZCOBPjv2OS19c9BGiFGcE0D7jdl/rPhN5V9kIoGX9cT+g9rXKIa8sEwbQ8nF+H2CX0mrIXgvH/AO5KfekzZa/OWi4ImJodrPIavx3xR/HdQaD5XQDmgzqmj9f5S8HTqWUQ+GF36GodLeulvD+/AJ/cxfi6sh/qz/YAcH/zRKR/Kvul+V5bVVPLIMiN3J/60mBZPxM3/Frjdwq9suyFemmefvSg0J+rT/eX/TM5l2urCmoZBB72dswqbdGDZe9sciP3Azsxr5TUX/ZDddkeRHwe2H0ub2bv88sRE9qsh8pe1dU2CIw/lDanc96YxA+7w5PeJrTNeJvQvy7HhJXP+MtCe4z3qE17FjOtz8N5r9AtEQQV4WFvRwwwyVu1dWl2oHXDPbZfh7gO6I8TkVem5knIg0K7Ld+bNqXRcsy5yMP57ZL+G2ZHBEFFTAeB7R9g3pu2pE+WYxbDA25nDf3Adssvi9OSLxzjCUwD8aCsL3CMwaW+95/35TcjPizpBREEFXJyRjD1ufCYpFepT3vKcUvFQ+7yal/JJFdJutL4KsxVktrKseHcGU9iHgUexTxK4muIR8/nqcZueJvtz0laM1WIIKiMmUHA1AX0fTK3K+k29enE7NHnR/N8xT4yPbRxBZleoOfkBRXOyPg4ZoTECJN8ncQBocHlOobMDa82fjfm3ZJecKoRQVAZZRCcrON7hG5arotpLt7r9V7tXjLdJF4MdGO6JXWXY1uB7VHEKDBK5lskRoVGL+T6fjfcafwRoWfvWhxBUB2nCwKmwmCEzN1cxF1pY/px2b9QPOBVXEo3psv2OkSHUKeTX0SmE+gEuhBdK/2Lyubn9sPAGDAOjCMOk3kcGJd0GDHGE4yupFV8eW++jNXsAnYJ9ZZ9iCColDMFwTTjEaH/xBN8diVdjPPhEa/hCTpZxXpEh+1OoXWzxsiXIU4FRqYDcWrjTbMKmPUa4DDi1N+FOUri1O22zITQ90/+PPX3eBg4KjTOBIe4lHH16tjMMStdc8n5a5tLzucOgGkRBNUxnyCYZvwQ5j7MfWlL+l7ZD/WV9+UXIq5HXC+0vezPKYKgOhYSBNOaD53cKemuC/n5NJx/zTUhb0HcuOCHziIIquNcgmAm23uU9Vdcwr1Vm+aGuXnEa3iS1zn5NyVtK/vzFkFQHYsNgmnGY8AeMl/G7ElbU6McE1auvC9fjbhW0jbjaxf8238uEQTVsVRBULLdgOYKtifZs9Qr2MLizFrxiXeel4fGIgiq43wFwUwn17RbX0Q8SDuPxMeI5eURr+Ep+mYs9T7/z4BEEFTHcgRBqfmM+wgwiNmPGUxb0kg5Lpy7vC/3IvoRm4B+oHfZn/GIIKiOCxEEc2neiTgIHAQea/75MTo4mC5PT5fjA+TH8sX8jA08w+WIDcDlwAbEhiX5jL9YEQTVsVKC4HRsHzu5rNaMAt+SdIBJRrVVY+X4OvKQu2ij23YP8GJE94zl1iv3eYwIgupY6UFwJrZ/BhxBHAGOYMYRR4SO2D5C4giTjDPJEbXryGI22lhKftgdzu4E1jLJWsTa5rLo2X82a4G1ki4p/xuVEEFQHVUOgoWyffTkWv7ZxhAz72ocVdZPp38wnlDWrNc4ed3Mz9xOfi7MWpbcDsyenpt1QKekU+PqLIKgOlopCMIyq2kQ1P7IsxDC2UUQhBAiCEIIEQQhhAiCEAIRBCEEIghCCEQQhBCIIAghEEEQ6sZ4xPijtm/CvN/43ubeEeEMYolxqAXjCTK36EndVm5P74Z7jO+Y907FZxJLjENY0f4wbUn/pQwBAPXpACd4h+1/LHthSgRBqDzjET2hW8v6TOmadBBzR1kPUyIIQvVlHpprJvAs5qtlKUyJIAjVJ75ZluaStqbHbF+wA3BXsgiCUHlK6ixrc3HDnSiu+bnEX0qoPNtXlLW5OLtL6J+X9RBBEOphU96fryuLz5J4W1kKUyIIQuUJ/SLmDzzi0+5+7H1+OXBTWQ9TIghCLQht91N+NO/LN7jhTgAPeFXel3tzI9/h5M8t+2EoFVLPlYVD3kgbD5f10DpsjyM6lvzNP8nV2qpHynLV1XJG4Iv9g+Y236FFSepc6hCwfdQX+wdlvQ5qGQRpY/oxIo4wD0tLNNLG9OOyXAe1DAKmPjN+zPaTZT2Ec2H7SaGPlfW6qG8Q9Ol+En9T1kM4R/9dfbq/LNZFbYOg6X22P1kWQ1gI258k8UdlvU5qeddgJo94jZ/y5yRtK3shnI3tPfo5vUq9Olb26qTuMwLUq2MkXm/5Vtsnyn4Ic7F9wvatJF5f9xCgFWYEM+V9+QbER6T5PaQSWpPtccxNaUu6p+zVVUsFAVNh0Esbu8i8RdK/KPuhdRn/CHM35u60JY2U/TpruSCYlvflXsQHEK9e6oUnoVqMJ4D7yby/1QJgWi2DwEPu0laNlfW5eNjbja9HXC/0wrIf6sv4e5j7hO6b74akC7m2qqSeQTDs7RxjUDs0722sPeQu2rjR9lsk9ZT9UB+2D0i6i0nuXMib2gNuZw398w2NKqlvEGTWa6vuLHvz4Ya3Wf5NMq+TdNpHW0N12D5G4l5Zf6U+7Sn78+Eh30jiUARBRXjY2y1/Uk9ow0JmBaX8tXwZJ9gGbMNsE+orx4SVy/hhzJck7WGSLy3kt3/JA273pT4o680RBBUxfcCJ8UdTX1qyzSjyUO5Tm15ufB2wTai9HBMunOaJRoOyvmj586kvDZZjzlVu5DuE3lXXA05qHQRMTQn/IG1OHyzHLNb050VgezMYNsbHiOVl+xiiIeuLwEML/V5ovvJwfp+k/wzU9qSj2gdB0y3q04dn/LzkPOBVPIdeJ/cDmxD9Qr3luHDujEcwg8B+ZQ3yM0bmdZ7BIrjh9wIfOlWIIKiMOYIA239B4ra0KX1jZv188pC73OYNiA2yLjfegLkc2CDp4nJ8ANtPAweBxyQdtPwY5qAmdXAxn/EXKu/PLyHzbknvmNWIIKiOuYKAqYtsVNZvaYseLHvLySNew5N0O7lbUrftFwM9iG6hrnJ8HRmPYUaBA5K+ZXtUWaNcwuiFXtvvfX655TskdZe9CIIKOV0QMHUBTgB3I+5Km9KKOxTTDT/H8lomWItYSxudZNZC82ezFtEJU3+W1FH+Ny6E5tZw48ARxBHgiNC47SPAEdo4wgTjWq0jlo+kjWnFbRqT9+WXkdgF7DrtatMIguo4UxBMMz6O+DjwsbQpjZb9qvDD7nB2p7LWzarbXfKpuxqWO2aGhuU2xKzXYA7Lmjz5o31U1sm9Hy0fl2ZPz518WEnjuvrUuKrJ+3M35mbg7We9ExRBUB3zCYJpzRnCPZrUn9Zxd9pweh7yRrf594HXnXYGUIogqI6FBME04wnMbmA3q9mdNqbHyjGh+vIj+XIm2UlmJ2LnvANgWgRBdZxLEMzU/Nhwjyb1aZ5kz/m4Nx2WjwfcziVsc5vfiLnhrNP/M4kgqI7FBsFMtr8laY/tPZL2qE8HyjFh5clfzRuY4FoS2zDXznkH4FxEEFTHUgbBTMaPA8NAA039O21KtTzwomrycP6XmD5E3/S/z8vGMxEE1XG+gqA0vbYd8wUyDV2kwSp/e14lftgdfsb9Suq3/DKgf1FT/vmKIKiO5QqCudg+gGhghhANtelAhMPi+GF3eNI9zd/0WzF9F2zPiAiC6riQQTAX24eAERIHNKGvG4/oIo1GQMzW/C3fLdTrVb6CTA/QK2l9OfaCiSCojpUWBKdjexwYRYxivokZlTSGGAPG1afx8jVV5oY7LXcoa53tLkQ34pcx3UB3JXaXjiCojqoEwXw0ZxPjiKOIw2TGMI/LGidxiMxR2+OpPx0uX7sc8mBeJ6mTRAeZ9ZY7Ec8n0YVZh+kAOlfUb/XFiCCojjoFwblqPtRzav2DOArM/CgygZgdHmYdMHOBTUfzjTxFtLfKQ1GnFUFQHREE4bypaRDU/sizEMLZRRCEECIIQggRBCGECIIQAhEEIQQiCEIIRBCEEIggCCEQQRDqxHjC+OO2f93ZV2J22L7JduwqdRaxxDjUgvEYcP1cB596wO3+Z/6ArP9Y9hYslhiHsDLZfkbolrlCAEA7dFwX6/3Gf132wpQIglB94h/VpzvL8kzq1TGhj5b1MCWCINTBV8vCXJz9XeOnynqIIAh1YL5TluaStqTvAT8t6yGCINTDL5WFueR9+YWzNloJJ0UQhOoTV5eluSjpRdIybHleQREEoQ625f35TWVxJg+43fi3y3qYEkEQKk+oncwHPOSNZY+pEFjFGt4r9IayF6bEgqJQG80j7v8S8wXMAUmdxr2Idwr1luPPSU0XFNUyCPJwfqmk/WU9hMWyvSltTvO6XVkl9fxo8DQHbf+wLIewGLZ/yNMcLOt1UMsgSNvSE8B9ZT2ERbqveW3VTi2DAADzaeNvl+UQzoXxt0l8qqzXRW2DIG1JX8H8WVkP4ZyYW9OmtLcs10VtgwAgbU4fNf5gWQ9hIYw/mDanj5f1OqnlXYNSHs4fkvTesh7C2dj+cNqcbinrddMSQQDg/X6Hs98t6SVlL4SS7W8o6TZt0l+UvTpqmSAAyPtzN+YOoZeXvRCmGT+I+K20KY2WvbpqqSCgudzUl3iXknYBLyv7oaV90dl360ndrR2aKJt11nJBMM0DbvclfhfidyR1l/3QOmyPArfrmP5SO3S87LeCWgaBG+5Rn+a1c21zhnADid8VmvOhlVBPxo+Q+RM9qXvnOwNYyLVVJfUMgqmHjkbUp/Gydzoe8Cqv8U7MTsROSZeXY0L12X4M+DzwgI5p93wDgKkQ6MT0xkNHFeFhbwe2a7P+uOzNhwfcznO4wW1+I7BNxGYWVWZ8HNijSX2an3HPuU7/Pew/Bh6KIKgID3u75c9pUr+orRor+wuRh/OLgW3T/0jqKceElcf2QcSXyOyhjS8t9g5AHszrWMVBWa+KIKiI6f0IbH+GSd6b+tO8Nrc8mzyUnw9sJtEHbAb6JL2gHBeWn+0fIhpAA9NgNY20Mf24HHcuvM+/ZPlDkn4j9iOokJkbkxj/uZ7SLbpWPynHLZYH3M4a+i1fB/Rh+iXF5pjLwPZRxKCsIeAhjjF4rlP+M/HX/Dw/7Q9LesdUIYKgMsodiow/gbktbU6Pzh659Nxwj7P7SGzF9AE9EQ6LY/socADRIDOkpMZyfHOf9+arWM3NQm87WYwgqI4yCJgKgy+QuT1tSf8ws74cvNfrvdq9ZHpo4woyvUB3BMRszTf8KIkRJvk6iQM6oRFdo0Pl2PMt78+vIfNuSf9mViOCoDrmCgKmLrR/QtzNCe5O16QLvtOMG+407ibTTeKXgW6gC9MFdErqLF9TZbbHgaOIw8AYMErmmyRGhUYXcrv3fMl78wZWswuzS9IvlP0Iggo5XRBMMz5M5vfSlnRP2VtpvNfrndwpqQOzjja6LD8f6MSsBzqATqF15WuXg/FhYPoNfggYl/U4k4whDts+qqzxC/FbfaHyvnwDiVvP+HcZQVAdZwuCabYfAO7jYu5LV6Uflf0q85C7yJxa/5DoIM045ceswsy+4MVhxKkFNpmjZI6e/DlxfLG3Y1ea/LV8GU9zPebfKulXy/6zRBBUx3yDYJrtQ5jbtVp36mqduvBDbflhd/iEb2wuLT/9DKAUQVAdCw2Cacbfw+wGdrOG3ekl9dyoslXlb+RLeYqdTDaXkaMXlmPOKoKgOs41CGayfQjxKaHd6tOesh+qww1vM96JeZOk9WV/QSIIqmMpgmAm4zHMZxF/r3Y9pF4dK8eElcMDbvdzvJ3Ev0O8ckFT/7OJIKiOpQ6CmWwfARrAMKYha7huX6BVjYfcZdxHG5sQfZg+oa5y3JKIIKiO8xkEpekn2zANSUNMMhjBcH55yF200W97K6If6F+2J0QjCKpjOYNgLs1764NC+4EDnOCRKtxHX4m81+tZzUagx3hT802/dFP9hYogqI4LHQRzsX0MODC9fFZJo84e1ZMaPR8Py1RJc9u4biV1O7t7xjLsHklryvEXVARBdazEIDiT5gziADAq60fGY8C40DgTHOJSxqv6BaVHvIYn6GQV6407gQ6hdZYvay6p7rmgv+EXKoKgOqoWBPNhPIFPrtEfJzGurO82H9QZl3R41gvEGCc4NdNo5+hCF0v5YXdwfMZqxNW0N5+DODXGXtd8LqLDyS8i0wl0Al2IdUKrZo6vvAiC6qhjECy1GcFySh3fuEutpkFQ67MPw+kJrZK0ftY/EQItK4IghBBBEEKIIAghRBCEEIggCCEQQRBCIIIghEAEQQiBCIJQV7bHjed90nGriyAItWF82NlvANamzWmtntDPOftKy3eWY8NsEQShFmw31KYr05Z0z/RBKdqhibQljaRN6a3GrylfE06JIAiVZ/sQ8L4zPV2Z+tJnbd9e1sOUCIJQB19Jm9MDZfFZMn9dlsKUCIJQeULzPcfyMeP/WxZDBEGoAeN5HZ6atqbHMbmshwiCUAfi8rI0l/xIvrxuJ0wvlQiCUAc7POCzb6pygqvKUpgSQRAqT6jXl/o9ZX0m7/V64LfLepgSQRDqwfxhHs7/fq6Zgfd6vVf7Dkk7yl6YEpuXhloxHgEewnxTqNPyFcCrl+wkpJpuXlrLIMh780u0Wv+nrIewWD7hX0nXpG+U9aqrZRAA5OF8JL4hDkvJ9njanNaW9Tqo73cE4iNlKYRFqfE1VdsZgQfc7kv9nfN2PHZoKcaH9YQ21PWcytrOCJr/w262/Z2yF8JCGH+bSX63riFAnYOAqSfOPgP8ifFPyl4I82H7J5L+JG1Nnyl7dVLbjwYz5X35bYh3S7qy7IVwOra/hrk9bUmfKHt10xJBAJCH8nW0cbNQbFARzsr2PyBuS33pf5W9OmqZIABww79gexdil9CGsh+C8UHM3bRzV7oyfa/s11VLBcG0PJjXsYpbhW4oe6F1Gd/DBL+X+tPs4+JbQEsGwbQ8nF+BuB5zvaTLyn6oP9s/wtzHKv4uvTT9z7LfKlo6CKZ5r9f7It9M5kZJHWU/1I/toyTu5AR/2oozgFIEwQx5X34hYidmJ2KnpEvLMaG6jP+f0G4n72aCB9KW1vkO4GwiCE7De73eq/wmYKekbWU/VIftPcBuTehTukaHyn6IIJgXD7nLya8Gfg3YLmlNOSasHMbHm48i/y2TfD6m/mcXQbBA+at5LdBHZjPQB2yO5xkuLOMxTENov7MbQg1t1Vg5LpxeBMEiecDtXMI2En22tyL6IxjOr+Ybf1DSEGaQYwzW+TmA5RBBcB7kwbyONvqBTUAPsFHS+nJcOLvmKUaPAAeA/UwyGFP9pRdBsEw84jV+0j1CvV7lK8h0I7qB7iXbRquimp/pRzGjJEY1oa8bj+gSHVCvjpXjw9KLIFgB8mBep6Qey91CXZYvAzqBTsx6oLOqX1DaPgaMIw4B45ijQt83HpM16uwD8Rv+wosgqAgPeBXtrPNqdwGdmlQnifVOfi6mE1g3+wV0ATNnGh0LXSxl+ygw82DR44jyS7jDiHFl/ZTMIbd5HBjXCY1xnMPaoYlifFiBIgha1HSwzCrGGzeEEEIIIYQQQgghhBBCCCGEEEIIIYQQQgghhBBCCCGEEEIIIYQQQgghhBBCCCGEEEIIIYQQQgghhBBCCCGEEEIIITzL/weC9LDQVn2LgQAAAABJRU5ErkJggg==;" vertex="1" parent="1">
          <mxGeometry x="111.5" y="772" width="98" height="98" as="geometry" />
        </mxCell>
        <mxCell id="99Vmx4YMKvBOmawWlfzG-2" value="&lt;b&gt;&lt;font style=&quot;font-size: 13px;&quot;&gt;患者情報DB（SQLight）&lt;/font&gt;&lt;/b&gt;" style="text;strokeColor=none;align=center;fillColor=none;html=1;verticalAlign=middle;whiteSpace=wrap;rounded=0;" vertex="1" parent="1">
          <mxGeometry x="120.5" y="732" width="80" height="30" as="geometry" />
        </mxCell>
        <mxCell id="99Vmx4YMKvBOmawWlfzG-4" value="" style="shape=image;verticalLabelPosition=bottom;labelBackgroundColor=default;verticalAlign=top;aspect=fixed;imageAspect=0;image=data:image/png,iVBORw0KGgoAAAANSUhEUgAAANkAAADZCAYAAACtvpV2AAAAAXNSR0IArs4c6QAAAARnQU1BAACxjwv8YQUAAAAJcEhZcwAAFxEAABcRAcom8z8AACsLSURBVHhe7d19nF1VeS/w32/NCUYYbLw32HCbfoy3ULGGGppzMokGm1yCQEvagPhCCRoUvFBeFNErVCxQsIIWkAsWFCrBRKG8CC1piYJ3Yokmk3OGxEuUaGlJe+M1BWwjGcpIZp5f/5g9cbLmzOx1ztln7zN0ff9RnnXEOS/P3muvl2cBURRFURRFURRFURRFURRFURRFURRFURRFURRFURRFURRFURRFURRFURRFURRFnY5+IOoc6tM8UUfB4c0AjgJwBIRBEE8T/L6kp+Gwzc13T/v/26hzxCTrMKrplyStAHEKwd/3232CXgDwAICvu7Jb57dHxYtJ1iHUqxIOxko5fZLkEX57CEHrKV7HCjf4bVFxYpJ1AKvabwG4hOQf+G2NkrSP5A36uW5wb3PP+u1R/mKSFcxqdjKEj5Jc6re1QtJaCDe4BW6r3xblKyZZgaxm5wC4hOAb/bYsyLQBwA1ugXvYb4vyE5OsIFa1C0je7MezJmmA5Eksc6PfFuXD+YGo/axqZwO4wo+3A8luSbdYzU7w26J8xCTLmWp6F4BLSc7029qF5Fsg/C/rt7LfFrVf7C7mSDUdJenxRhJM0BCAeyD0wbCZ5Aw4lAUdR3CZ//rJSNrIV/MkzuWA3xa1T0yynKimmZKqJOf4bRMRtJ7gxSxzh98GANZnJ8LhRpJH+W0TEXS/K7t3+fGofWJ3MSeCbg1NMEFDMp3pyu6kiRIMAFyPW88BHi3oFr9tIgRPs6qd68ej9olJlgOr2gchvNOP1yPoRxA+6Ba4tX5bPVzKIe7lxSCukmR+e13E+Va1Hj8ctUfsLraZtmqGhvUkwdl+m0/SHpLLmx1uty32ETre6Mfrid3G/MQ7WZtpSFeGJBiAnwH4cLMJBgBugfu8TJ/14xM41bbYB/xglL2YZG1kVTsdwNl+vB5BN7uK+4ofb9g0/G9JX/fDPoIODh+0zfYbfluUrZhkbaJelQD8CclD/DafpI3cy6v8eDPcMe7HHOIlkvb4bT6Cb0UJ5/nxKFsxydrlYKwM2bIiaQ+GcTqXcshvaxYXcSfJs/z4BM61fkv9O6PmxSRrA6va4XIKfd652i10u/xgq1jmQ5Lu8OM+giUYLvTjUXZikrUD8W6Sx/phn6R1MNzlx7NC8i5JIaUJ3mU1S/17o+bEJMuYfc9mA3i3H/dJehHAXa7H/dRvywrL3AiH1X7cR/JwAHE4v01ikmXtZbyH4Fv9cB13uYq73w9mbh/uEvSYH67j3dZvb/eDUetikmVIvZoO4mN+3CdokMar/Xg7uIVuF8Ev+HEfwV8GEDpYEjUgJlmWDsZ7Cc7yw3XcwR7u9oPtwjIfErTNj48jrLTNFjJxHjUgJlmG5JS6PlHQswDu9ePtRvAmP+YjWEIJH/TjUWtikmXEqnY8gJP8eB1fd2X3uB9sNw3qAUnf9OPjCCfZd+2/+OGoeTHJskKcSLLLD48l6AUIqUue2sEtdnspPuDHfSR7MA0n+vGoeTHJMqBeTYeQPvks/B9XcY/64dy8iC8Hzpud7gei5sUky4C6tYrkDD8+juFuP5SnZOnWbX68joX2hFX8YNScmGRZYHr3StImCOv9eAG+KeknfnAskjNhQc+XUYCYZC1STUeFHAxB8JtuoXvBj+fNVdyTIL7jx+s4xw9EzYlJ1iJBp/oxn6Q9gh7x44UJGHwhONtqdrIfjxoXk6x1b/MD4xDrXcX1+eHCGL4pqOaHfQQX+7GocTHJWmBVOxpC6g+R4Df8WJFcj/spiNQ5M0nH6grF30iL4gfYmh6Sr/GDY0kawF4EVZ7KE8U1fsxH8q1Yjl/341Fjpmy1Km3VDAxiBqZhtobVTXCWqJkku+X0egCAYTfBnyf/faeoITru1JB2ZrFR0qr2IMkVfnwsQWtd2Z3pxzuBVe2ptMKokj7lKu4aP94s9aqE6Zitg1SijRQYkmn6/jWfxC4QQxjCTjgM5rnGs12mTJLZFpsLYBmI4wAsIdntv6YRgoYg7ASxE8DTEL5Pchu6sJ3HMLU+hno1Xd16Lu3vkOnM0BqKebOqfYbkpX58LEkbXcU1tKFTWzUDw5graS6A14OYDWEOiDmBlbsOIGkAwPMAdgPYQPFbeBEbuZSD/ms7Uccmmfo0C8CJ6tIJAJYErm7PhKBdELaB2EawH13Y4Cee1exkgpOe+yVoiNP52k6tPa+aFgNIX0c5jMMnuqMk9f3nApgPYC6Iec0kUqMEDQLYTPAbgjZwL2tZ1knJUsclmW2xuejCJRDeS3C6314USTvgsBmGPggbQXyY5KTl3gQ95srueD/eSaxqz6UdgCHpHFdxd6hXJR2qMgyLQbwt6VGkr3TJgaDdMFzHF3lbp93hOibJtFUzZLqR4iq/baqSdKGruOA69UWwqt2eerGQngaxC8DCTrrw1SNoN4SrXMWFLB/LRUckmfXZiejC7Xl0M/KkIf1qFgMs7aSaVgB40I9PdZI2kjxnsgM78lL4EL5V7TR04eFXXIJJA+xKr7tYuOl4LHm+eUUhuVhSNXnuLFShdzLbYu+FwxqCJb/tlULQLgCrCX61E66qo2yzzWaJKwWdQXCu3/5K0QlnZheWZLbFTgVxM8n/5re9EkkaBvAYiMc4zMfYw/SaGxmzTXYkSliWTIUsIyafSH+lkPT3IC50ZVfIyptCkkzb1a2X9GTooXgTETQIYXRoeWQSU9gDh5HhdmEWgJEHdaEbxOw8pwImkhxR+xgMX+WLvL+do2HqVUkHaxm6cAaA04oeuBgzP/mLZ9V635kwG0Ap+c5a7ukI2sa9XNTOz3oihSRZyCRoPcko12YY+iFs5L9ze6Mf2uiKA5QwB4Y5cJgj6C0Ajkpb/dAOkgbgcD+G8AXX41IX7YZKpkI+mEyF5HphSSaPd8BhO8UfyrQTDjsxhF3NDASpT7PQhYWi3gbDQhDlZi4WWa9eCZV7kiVzLc+EDnQkV751IK5zZbfZb8+StqtbL+ooOMwDMR/A4jyfVyRthnBTcndreGJVvSrhUJws6PxGD21vVnJ6zAaSfQB2ANjR7mdP9Wo6DsZ71aVLGvl+BO3iXr6hmc+2FbknWchKiVGC1oK4ys13IXUp2iI5KXMxtH/ydaH/mqwlcz1foDGoPqNqmgng7CS5gi5ezZK0E8RmCN+GsNEtcNv91+TJanYyhCtIlv22ejSsk1yPy3WHehFJdh/B0/y4T9Tn3Xx3sR8vkvq0Cl2404+3SzK0fj+AL9S7i1ufldGFD+f1rCVouyu7o/140dSrkrp1a9qkOkbeQ+7H+OaaZMld4bm0B1lBt7iy67jjfKzfPkcxtQx3O0iqQbiJ07hO+3QyiPPzuKuOJWiIe3loo8/BeUgeQx4luMRvG0vQILt4uL8WtZ3ynYwexIy0BAMADOE6P9QRhNT+v6R1gtYmD/+ZIVmm4xoM49/ouCbrBJM0kDYpTbCkg5X6GRSBSzlE46f9uI/gdL2sXBcJ5Jtk05D6vCBpYzMjUDmZ5wd8ND7gyu5MDvAwmU6X9FDaj7coSWKtBXAKB3gYgPQJW5f+GRTmRWwMvLhNuiA6a7kmmYY16d4rAACxwQ91AtU0M2QoXNB2jFxZB90Cd4+ruFPYxcMlnSOo8PcmaHBsYrmyO5NlPsSlHASRPkHu8GY/1CmS95A6DRLyPWYp1yQDcbgfGkc5/02BJPX4MZ+gIXbxWT/OY7jHVdwdruyWakhvF/TpkEI2WZL0LUkfwzDKByTWWIatB/xzPcIb/VBHEV70Qz45/bIfa6dcf9AU5cd8BPf5sY4gHOmH6nieZf6zHxzLLXSPu7K7nHu5SNDy5BmuLfM2ggZFrRa0yFXcMldx17se933/dfs5bPFD4wiL/FBHIQ7xQz6Cr/Zj7ZRrksFhpx/yySn1QyqEC7qCB88ZcSmHXNmtY4lnAkg9QL0ZFK/jCzyn3vB/PW6+ezqZXJ4QyRnapJaWw7WVkDqwJuh5P9ZOuSaZpun/+7FxrEMfrBlUtekpPzAR22S/bFW7WMN6lOC5fnsmiCt0iB61qp1t37XQq3fqc6OmaYEf6wTJkU+pg2sA/tEPtFOuSca38GlJz/hxT9mesJCuWW5smx0CC7iTWfqXZ39rr7J+OwvTsJbkDUTYSoVm0XEJydsxDWut31KrHcPh7/3QOIY3+aFOwOn8raBF58I/+KF2yjfJSAPwL358LJIzaOysEaxhHE7yV/zwOMKka/asZgtxGB6j+OW81haOInkqxQesZvdZv008TxRwoQA7tLdhSL1gSdrjFrgf+vF2yjXJACBkmFjQCX6sUELQ6nyi/h4x1TTTaraG4Cay2NLXBE+D8JRV7TPaqnFFcIiAxb3ExElaIEHH+bE60t9fxnJPsqCS1cLKej+AwozsbZqUpIF6i3nVp1WSniK40m9rlKANGMZZrc63ESyRvFTDesq22IF/lwX8CIX0LlnOtElzgnoHxGN+qN1yTzLsxXpp8tEdkt3ap86pWkWkdxW9K6Q2aY7V7FF04c60kmtpBG2AsNSV3VL2cLUru6UQlgpq6QdDcBYd11jVHk+Kx4I93B0wwtjdURdBADpI5/uxegh+1Y+1W+5JlkyAPuTHxyGCPrScpF+5OZJk6lXJttjHNE1PBV1ZJ3FAclV4wN2LFW5wZXc8hnGMpPTPcxIkF8Nhq1XtM9qubgDpW4teDvhMcqJeTYch9aIsaFu797rVk3uSAQDFv/RjPpJHdND5WKndRYLftz4r61BV6fi5VraeJN3BY+sll4893OYq7hQM4xhBTe+T2t+FfElPAkhf/tbVQUnWrZVBvQUh9WD6digkyfAiNiRVnNJcrV6lTi62XcAziKR3ogubCDY98iZph6DlruyWNlpdiT3c5sruJBiOF1R3ACYEyTkhZRhknTEhrV5NB/AJP17XMFb7oTwUkmRcyiEQ9/hxH8F56u6AZzMG3MnIctA2njoE7ZZ0Hgd4tCu7dX57I7iAj3EvK8kASciFrDldGDk5p2A6RBeQ6fUti9zdUUiSAQAMdwv6kR+u40O2xdIngtvE+u2IZpMnjaB/lHQ1DEtcxd2WVe0JLuUQe7gaJbxd0qckZf8cMlJVqlC2xY6BS38WAwA4fMkP5aWwJHMV9wQUcDcjK3Boefi7BZnXhZT0sqTbIbzPVdwft2ty1M1zzyTVmVYJ+qKkl/3XNC1gWqPtHFYS6QsXJD3IV6WPA7RLruUHfNqqGRrSM2kngwga5D6+iYuYusA4a1a100je58ebJWg7jRdzAVsafm+GtmiZqFtDuldpJD3vKu4wP54X9WmeulQN6mUIqQNI7VTYnQwY2WcF4bN+3EdwOqbhs0lVprxl8uwh6QeSPoGDsKyIBEPyvAaHZSCuEvT//PYGzUjOkMudfdd+RU5/EpJggu4pMsFQdJIBAF/kjYLGrZSo410AUqsRZc613i0StZrG41zFfdb9ppt07Wa7ufnunzifVxJ8RyuT2SRLKumSQkZ/D8K5JJf74Qnc5AfyVmh3cZRV7VySt/pxn6AhDrOSVx1567MT4bAmaA6mjmQo/bzQ/VxFUJ9WyelzTb9HaSOGcXpeI3dWs4UAHg+6i0kPuYo7xY/nrfA7GQBgGF8TlD4IApbkdK226L/7bVlSTTOtan/CLt7TzI9P0rOCroHh9zo5wQCAPVwN4ARJfy5o5BD7BpBcjBIetKq9z2/LmlXt1yBcHZhgPyJY+F0MnXInA0bW+iVLkVJXSrSzLqP6NEtdWtPskihB2zjMs/K622YpuXPfGrQnqw5B13Avr8pqKsJnNbuZ4AV+vJ5OOuW0M+5kALiIO0Fc6cfrEj5k/Rb0YTfCanaGuvRXzSTY2LvXVEwwAHA9bj0cjpd0raDn/PY0BC/XofpK0qXLlFXtQggf8uP1CLobP8ddfrwoHXMnA/aXW348pHCnoEEM49gsTkJRr0roxuWiPhnSFfFN5bvXRJo9eQcjn8duGs/MahS1weewAQ7x6CKmeybSMXcyJCsVQFwpadKKTxgd1u/CTdZnLVVPUr/m61D9BYgrQr7Euoaw6pWUYIn0eiwTIDhL1L3q15XWZ//Vb2+E1exYADc18N1c2UkJhk67k41STZcC+Iwfr0fSZg5w6bgaggFU02JBd7d8Eso+vCHrL1a9mq5DtQzC7wNYAmDm6KR9MuWxG8A6DvOBdiR4VodrCHqM4Oksc9I9hPVou7o1qMdDF10L2uDKbqkfL1pH3cn224s/C53DIblQr1Hq8L/PtthKQb0tJ1jG7Dv2OqvaxejGRoIPkzyb5BFjV8UQnEVwHsHL0YWtVrW/sn57z4H/ptaoa/KNtaEILpP0uGpKXdnv00taE5xg0vPcx7P8eCfoyCTjUg4RPF1S0N2B4irbYsGnraimS+nYcQfCW78dgVfhWyRvSA4hDELy9yjeYzW7L9l02TKKITXlg5A8Kkm04Pom1m83klzhx+sRNETx9Kx7E1npyCQDAJb5PBwukpS+SxcAiKutah/1w2Ml819/FtoVDXYIfuaHGqWqlsCwqZGTI30ET9OgHs9iuZOk1HLXjSA5U9Baq1nqjnfrt8spfsSPT0j4ZFaDLO3QsUmGkSVAD0O4yo/XQ3I6iOusanUPGNR2dUu6neQlflur+Jv8Nz/WCKvZKYJub2bi20dwnkpabf32m35bIzjMhofw0xB8PcFbVNWEUzW2xT5C8Wo/PhFRq13Fpa5/LVJHJxkAuAVurag/8+P1ECyBuFtVHXAQnPo0Sy/p0dDuR56Su86fZ7EyfhTFEyBc39K6QofUgSRJOyV9quFa/sQVVrM1/t9nVTsNDp8bG5uMpBpf4Hl+vNN0fJIBAF/gZcEDIWBJ0MOj/X/VdJScekPm3sYStBvDaPuDtLr06XYc5UNwmQ5ReJfLU6+8XT2u4q7BMJanVbjyEVypbvWO7qxQTStA3B36nJzMxS1vZlQ5b1MjyX4xEBK0w5dkt6D71KdVgnpDalaMJamGIVRgAXXhw3YQ1GU1OwXCH/jxzBCnNzOq16hkpUhl9Gy2UCQXS3o8qU0ZPBCV3DlPCb0QFG1KJBkwMhBC8DxB3/Hb6iE4C124s9G7hKCbMYx3u4Vulw5SyCENjXWVxhLeR6av1WwWyd+S6UQ/HsK2WfrpOvzFPKub755GCe8UdNuBL5ocyaOS2pRBo6KSngXwh52+8HqsKZNkwEitQYJnpxVHbYagIUkXurK7yC10I4diDKPLf904ai7JrGq/BqLixzNHNLwOEwDcPJc+uigccN6cm+d+5MruPEmfGhvPlHCJK7vb/XAnm1JJhpE72g4A5wnKrC6GoB9AOHvcqm3h0AP+uR6mn+xYl7CICDjEokUkf7eZIX37kb3Kj9VR9+7jKu4aSX8o6Z/8tmZJ2ifpE26BW+u3dbopl2QY+RLvh/CnUuslzyRtBHGpq7jxq7YdUrtyVHMP3lmOJqaRU8PD+XyB5sd8JKf5sVGu4m4FcJmk7/ltTRE+3elD9ROZkkmGkS/xKwA+Lelf/bZQgv4awKVuvnvYbwMAdKUnmaimkkzQ6/xY2xCNF7z5R6QmmaCD/NhYruLuhnAZgG/7bY2QdC1f5Kf9+FQxZZMMI1/ibQCu8OMhBK3ndJ7hKm7CgRQO8yU/VkdzZ1w7hAyqZILDE99xJsJ3c9iP+ULOXnYL3CMYxnubrWqcTDZf1q6NoHmY0kmWaOpO0uyARWYMIQmcCXWpuQtBRpKh9oYrI0vaQ8eL/fhUM6WTzKp2NoA/9eMhSJ6sn+srVrUev22UTOmjiwwYgawv82VLE1Lj/1+20VKLuoasb7SqHW5V+zzBy/22NCRnaEjXNzNw00mmbJLZFnsPgMtINv68kaB4Cohrrc/qziWxi+mFZdTkZ6iAs5mzMowf+KFUr8bBfqiOSe+Q1mdvBnEtyQ/7baFIfkBOl2W1u6AIzf1ACmZV+x04XEqy5apVBJegC5+xfnuv3xY4qNHsZ1gV1PYajJK+0VS5tn1In4yeJMmsZsfC4VqCLVexInmRfq7L/PhU0ewPpDDq0ywQfxG6mS8EwXkQ7ky6n7+Ivxy0mzf9bldHUv9+qx/PGtlc9Vx28bV+rI663UX1aR6Ae0lmdr4cxT+yLdb0WswiTakkU5/myenLjS6VCpGUovuS1ex622K/CgBykw9RJ0Ku+HUR/HKmh0B4JH1PpoYHHDDy3tOfNccsqxplVbtIXXqgHd8RHK62ql3khzvdlEky9aokp5tJnuS3TUTQLY0s4CVJgh8Fca9tttk0hiRA3at5CJZ5H4j2nWFMfNUtcA0t2h3FYY5LoHHGLKtSr6Zb1W4neRMR3o2XNCAoqD4iwW4Q16umjtuyNJmpk2SH6maSwdvXRX3eld2F3MdFTawOX4gSqnA4YF/aBFraaJnczfr8eKskfQ1C80uQGjgaSZs0Jynl19BZBZKeJllxZXdh6HpHgiVJa0YPkp8KpkSSqU+rCJ7rxyciaK2b7y4GRoqmcjoXNXqe8ugqfj8+juqv3wvFMjeSvD6kDF4oSb0ArncV9xO/LWvWZyeqpK0ky37bZCRtJLlo9KB0V3HXiPq8/7p6SHaDeHCqjDh2fJJZn5XVFV6NStI67j2wahHncoB7uTz0S2wIEbQHajIs8z4Y/qeklovXCNoOhw+5invCb2uEXMCuamI2u/hI2vlyPlGrOcClfpk4vsCPC7p/bGwiJI/QS7rbj3eijk4ybdZ8OFwfUh8/cR+G8NF6S3C4lENuvrtY1EclZXmFf40faIbrcetJNrzxcSxJD3E6F7n5Lqz40ORSi5KGbrIcJWiPpMvxLzh3ou8I03CxpDV+Wz0kT7aa/bEf7zTpD7cFUa9KOlSPhNall7SD5LH+1bEeVbVE0IONXoEnwnLAIEEg+469DgfhDIJnhJaFk/TXcPiam+8yO7JVVV0JNrcutB5JAyTPZJkP+W0+bVe3XlJvSBdU0BCGsdz1uIYeB/KU2Y8ja9Zvn6MYVEtR0h44VBq5gqumoyQ92GhpggkcFpLcjSi6grDV7OpmlkLVI2g3h3lSI3+nbbbZKKEaMhXQzPefp45MsoYOGGjhSpacWb2m5UnTNpTpLpr1250UV/nxRkmq0bi8mXocqmqJqEeDfgcj5dqPrdcNLVrHPZOpV9Mh3BnywQIAhKuaSTBg5MxqV3HLAVzWcFmzMXRQwCDBf0KiPs8BLmomwYCRchMQglbhk1zYSnWuduq8JOvWFaFdOEH3u4q7xo83imVeS/H4RiauD2B4dKJFxlNWC1MTkp7XsE5y893Frd5ZXMXdImq1H6+LuEKb1NQBhu3UUUlmW+z3wLBah4IeIRg0gRkiuWqukPQ1vy0NyTlweMhqdrM9YW/x26cS67dFVrXbIbzTbwuRHEu8otnexQSuFPR1P+gj2a2SrtEzCh2NzkXHPJMlx8h+iUg/1V7SP0M41y1wj/htrbIn7DAM4cNwuIhgeiEdj6AqjXfgb3AHr0qvk9Ep9H/1Wg3qgyA+QPJNfnsaQf8K4Ra8hFvc213D+9fSJM9ntxF8o9/m66SjbNFRSdbAkLFMH3cLXFDp7mZZzU6GsKbZYX5JD2EYFza1zSRnycLrWxutsjwq65M1J2JVu4DkzX7cJ2kPySOzHvFtVkckWXIXeyZk0jnPUSRt0hyVdF/IfE09kvZAuIov8pY8/t5Gabu69XNdAeEjwQNNHkHrk6N8m3uebZDV7NGQuVNRq918F/To0W4d8Uymkj4RlGDQIMmz8vrBchF30vgFPx6K5Aw63qhDtbWRs7nyYDU7WS/pSYofazbBIFzlyu6kvBIMADCEs4Lq7gsrrd9yK7s3mcKTTH2aB8Pv+vG6hCtHF5TmRdP0Yz/WKIJzJa23frvF+q2pu2JWrGo9VrUvAniQZNMjcZL26WX9uR9vt6T7nbqUimAJQtBihnYrPsmc3kXySD/uk7SOJX7Rj7fdvuYPKB+L5CEUz4dwp9XsY6OnmeRFNf2SVe1iEHeQ/FDTd69f+LF7m3vWD+aBr+YXJd3rx8cR3mNVe4cfzluhSZZsU3+XH/dJGoLDWh7D9G5CxngQfxxSlSkUwbkEPydprWpaZd+11NqFrVCvSrbFVkpaS/KGVk7yPADR8h2+WZzLl+GwVtILfttYJGeAeLcfz1uxSVbSGSF3MQDrs1z82ggewz0gWjpJsx6SJwC4E9Pwd/6hhVlRVUt0qB6lY+tLx3xNlJnLkpvvHoZD+twZ+MHkYl6YQpMMwrgKUT5BQ3BhS2vaRmjbMDzJMoheq1lvsmazZerTPKvZIyB6CbYlgeFQ/FrNffiUkF5RTE6p51S3U2FJppoWEwzZ4n5b4aurmf6DkrQjaNRrAgSXENxkVXuw2SuvajrKqvYgurCVYHuXeQ0X110c5Ra6XRSv8+N1rPCPzs1TcUlGhS3bIW7yQ7ljwJ2M2EnySEHN19UYubOtQBe2Wr/dGToEbf12hPXbnYKebPVcbEHrg85/C7jw5MJwW9ribpIzcUhQvZa2KCzJIJzmh3yC1hd+FwMAQ8g5W/NY5vOu7M6E4XhJLf3dFFdBeMqqdvtEZarVp1lWs5shPEVxVSsjhpKeFrSce7kcRPoql5ALTw6SObrUkgWi3uPH8lJIkjXQVWx6IjhLJFN/UARnaatmAAAX8DEO8E3J+VxN1+0gWCJ5trr0jPXbjfsPMd+qGdZvNyarZC5oMbkGAFzGAR7tym4dDsURIf8+DnfO/jkiaMFAYV3GYpIMOsGP+STt5F5muZK7ecNhXSMN/+IQdC7lEMu8lpZBFxKcTvEjkv7e+u1ODekZih8JWSUzGUFraTySZV7LpfsPM0zdZiRoKNdVHilY5sa02ihFdhkLSTII6XM1xPq8lk+l6grsGgnjBizYw92u7M7UsCqCmiqZPYrkDIqrml20PErQBgzjGFd2Z/rJIlP6c6DCLjq5UvrRTKIyGb1tVDFJhvTCmQQzL/jZLJb5vKQn/fg4xK/7oVGux9W4l8dLen+jNSCzIukbkt7PvTx+wnobk7yHUSTbXsO/Cf1+YByi6WVkrcg9ydSrEjj+iu/TkNq6baIJ/+AH6ph0HxaXcshV3Fe4l8sxjLOa3ondIEG7JZ3DAZ7sKu4rKT2Eo/2AT1LIZ5ErlgK22Qhv9kN5yD3JQh6sBe3uuH1YxKR9/kTqxQOjz2s9XM29fEMyONL0/NpkJA1AuIp7+QZXcXekJNeo1GeyoLtGzngM90hK68amd4XbIP8kE+oORx9ATR5R20YEU39YY0cYQySDDRtBtKv7+JhM68YMakxKmzQn6HlPyHUnRFZIzmzk+8lK7kkmpymzJX8smULmyqAhVfyYz2p2rFXtKqvZxqT0XerysmaQXMEuVq1qj1jVLrI+m/R5SyWlbsOR9BMYMqvbnykitUcgl3/9/NyTjC8z/QvKoL581twCtzWwW/drfgAAVNNMq9oFVrVNBP+O5B8TfJv/unYgeSLJm+DQbzW7daINpCRDulM/dgvdpKvfC6P0SXT3lvwfQ3JPMgwi9WGf4OzQJUU5S38uc9hf6CU5s+s0q9qDgn5C8uZm62hkgWR3cjrO41a1Z6xmV489gkhQSKWt+qOSBVNNM8HJR63zGmjy5Z5kXMrBoFUQlr5CP3cONT80jnCUqlpiVbtd3XqO5H0kV6QN9uSN5ByCl9PxSavZVqva5RBSu4sQvu+HOoGk9M9YSP/dtUHuSZYIuRq+v4iH1MlwiN/zYz6CJ4LoJXk2yUz7/5J2iPp8q+sifQTnkbw6pLtITjC/VqBkbecn/Pg4BS1qLirJUo9wJXmEhtVpB73l/gMTNCRpnYZ1kqu4N7n57mJXcUdqWCdJzZ0H3ZJS/p/BZNSnWXLqDblAQPgrP5SHQkrCabu6NajnQtbeJUeefjzkyJ12Sk6BWUzydr+tHSQ9D4fVfJlfmOwwC23SHB2k82E4O2j4vUWiVnOI30YXNudd1MiXHIF1a0hZd0GD7OLhhZSw8AN5afTUkKSLdD0HuDp03qdZ6tV0Hay5IBaD+G0QC0OO8MmCpBqAL3KAaxt5n+rVdHVrJYjzCQZNircq2Xe2EcK3SW4DsT2PgqKqaYWkTzQyiFRkHcbikqyB45HGkjQAogZhM8k+ABub+WLVp1kwTMc0zJY0i+BcUW+GMDfkypilZAv9QwBucmW32W9vVPLZfhjAipDeQpYkPQ+iBmIHDD+k+DQcdmEvdjZy0Rh1wAXPYT6EhUFdQ4+gRVl8ts0oLMkwUgPwMyQv9eONErQLwtD+B9uxD7jCdACzklNKZgKYkUe3KoSkjQC+SvL+Zi4UaZLz104DcUbban00IEnAXQD2ABgE60znGGaC6N7/vRGzG70Q+wTd78outSpauxSaZOpVSd3qJVl3cvSVSNA2gn+pIa3Nc32mbbbZLHGloPfk1Z3sBIJ2sYtHF/EsNqrQJAP2nw/8yCs50SQ9DeIeGP7SLXDpE9ptZltsLhzeA2BV4A71KSk5p/oklrnRb8tT4UmGV2iiSRqAwx0UHyj6S56MbbGVdFzjx6e6Zs6pbpei5skOwLkc4ACXQrgqrfLQlEGU+Cp+qpMTDACK2sjYTpI2gzi2ExIMnZJkQLLHqsIrOcyK0HEbNhtGcLr+XS2VZ8tJar2VqULQoEwf5wCP7YgqZ4mO6C7Woz7NU5cugbAi6+VJzZC0E0QNhu/AYTOA8wmu9F83lqC1ruzO9OOdIql+lV5uexhnoQt7JPWAWAhgYd5TA5ORtAcOd3CI1/s1SzpBxybZKPWqhG4sBrBE0HHJxHBLQ7qTSbqrOwDsoPh9ENswjM3+l6eaVgB4cGzMJ2mAAzysmfmhPFjVzk5bwSJokHv52rHvQb0q6WDNS+auegDMzewgi0CCdoF4jEP8Ng7CQ0WOHqbp+CTzabu69aIWo4QTIMwGMBPCLBDdoSNl++drhF3Jf/4YwA4IO/gid4Rs009WWDyXepc1HN/uY16bZVV7MK3isKR1ruLSz/EenTR2WAjijRDmgZgT+p2kSfbybQDwDZIbil7S1Ygpl2RptFUzMIgZmIbZEEqiBrlvzF1oELuzurME/kjvcBV3jh8vWuhFQtI5ruLu8OON0CbNwTTMlmkOHWcnE82Q0+u9l+6h8WfJ4oIBkrslPc9hDky2frPTveKSLE8hw9+Cdrmy+1U/XrSQ7i4AYBiH+13lqDEdM7o4JRmeEPRTPzwWwdm2xcIO18iRoPQuILQ+JljrYpK1wC10P4AhfR6MaO8xRg2yJ+w3AKQf8yp8xw9FjYtJ1iricT9Ux4lja2kUzvCOwAGJmGQZiEnWqmGkHrNLcjZYzGEHdQln+CGfpKddxfX68ahxMcla5Ba6XYLu8ePjEL9f1NE9Y1m/HQfiGD9ex11+IGpOTLIsCI/4IR/BZTpUxT+bCe8g2OWHx5L0HB1T31MUJiZZBjjArwkK2RtW2GmPSObGIHzAj49DfJvz08uSR2FikmWASzkE4ct+vI5l9oS91Q/mRYfoApIz/fg4wtf9UNS8mGTZ+duAObNZMBQyZ6Y+zYLDKX7cJ2kzS7GrmKWYZBlxFdcX8mwG4FRt1nw/2G7q0qkE0++ixCOdvNh2KopJlqUu/K0f8hGcoy6d6sfbyTbbayCk/n8K+inUtmOc/tOKSZYh/oz3BZbQ/sM8S5CzxP9B8jg/Pg7xsKu4LX44ak1MsgxxKYdAfNaP+0jO0JD+yI+3g221XxF0gR/3Jc+Ta/141LqYZBljF+8T9Kgfr2OVPWG/4wcztw/vJwLuYsK9br77lh+OWheTLGPJoMF9ftxH8jAaV9k2O8Rvy4pVrQcO7/PjPknPErzXj0fZiEnWBg3czd6FIQSfB9CE9xPcfyjhhIh7WeEGPxxlIyZZG/AY7uEwv+bHJ3B5cr5WprRFy0ie58d9goZA3OTHo+zEJGuXf8daSal1KAjOUpfWZLl4ODmza9Id2/sJqzupfNorUUyyNkmK8XxK0r/5bT6Cy9CNy/14M6xqh8vpppCjniRVMYxb/HiUrZhkbeQq7n4Qk5ZcGyXoIttirddoFD5C8t1+uB6Kd7iFLvWI3qg1McnajbhdUurmR5KvBXGJ9TdXD0QQrWqXg7jIb6tH0pfxN2ipClUUJlaryoFV7XQQXyImL7+GkR//UwCudhV3t982EftnezWexScJftJvq0fS92E4x/W4TX5blL14J8tBkjCr/Xg9JN8E4EvWZ0EbPNWr6XgWN4QmWOKWmGD5iXeynCSnXm5q5KhcQfeDuGyi0T/rsxPhcHMjx7tKeshVXOqWlyg7MclypE2ao2naFDLyNyo5T/p+CH0wbCY5Aw5lQccRXOa/fjKSNvPVPJ5zOeC3Re0TkyxnqmmFpGvJgJUYGUoGXy6Nq+zzF5/JcsYyH4JwnaRn/bZ2EbQNxHUxwYoR72QFsaqdS/JWP561Tjk3+T+zeCcriKu42ySdK+hHfltWJD1O8syYYMWKd7KCWb8tp3gJgN/221oh6R4IN7gFruq3RfmKSdYBrN/KMFxC8r1+W6MkGYAbANzgKu4nfnuUv5hkHUK9KukQXQDiwyTn+O0hJG0G8WlXduv8tqg4Mck6jG2z12EfTgVxKsHj/XafoMGkGOmDLPPrJM1/TVSsmGQdTFUtETQXxBsBHAHhKACDAHbA4WkYfkhy41Q6PzmKoiiKoiiKoiiKoiiKoiiKoiiKoiiKoiiKoiiKoiiKoiiKoiiKoiiKoiiKoijqRP8BvnAl0WS5iGwAAAAASUVORK5CYII=;" vertex="1" parent="1">
          <mxGeometry x="440" y="617" width="107" height="107" as="geometry" />
        </mxCell>
        <mxCell id="99Vmx4YMKvBOmawWlfzG-5" value="&lt;span style=&quot;font-size: 13px;&quot;&gt;&lt;b&gt;LLM&lt;/b&gt;&lt;/span&gt;&lt;div&gt;&lt;span style=&quot;font-size: 13px;&quot;&gt;&lt;b&gt;&lt;br&gt;&lt;/b&gt;&lt;/span&gt;&lt;/div&gt;" style="text;strokeColor=none;align=center;fillColor=none;html=1;verticalAlign=middle;whiteSpace=wrap;rounded=0;" vertex="1" parent="1">
          <mxGeometry x="453.5" y="600" width="80" height="30" as="geometry" />
        </mxCell>
        <mxCell id="99Vmx4YMKvBOmawWlfzG-8" value="" style="shape=image;verticalLabelPosition=bottom;labelBackgroundColor=default;verticalAlign=top;aspect=fixed;imageAspect=0;image=data:image/png,iVBORw0KGgoAAAANSUhEUgAAANkAAADaCAYAAAArKufYAAAAAXNSR0IArs4c6QAAAARnQU1BAACxjwv8YQUAAAAJcEhZcwAAFxEAABcRAcom8z8AABNCSURBVHhe7d19kF11fQbw5/ntorFgjZ38gRotvjYqQkLu3QUFSRSVEEAQ1CLSAhJaOlJ1aEV8yd2rreLoKMUXDL6AFrUz0hoQQcd2glOq2b13k6D+gfWFCFhSRcUaxwDZ79M/cqLLN5u7d3fvOeeevd/Pn9/nMBkYnpxzz/md8wNCCCGEEEIIIYQQQgghhBBCCCGEEEIIIYQQQgghhBBCCCGEEEIIod/RD8LCaLuW6hGdCuJEEM+CsBzAsD8uJ7sA7ALxPUzhpjSa2v6AULwoWQ/ZpF0AwyUk6z4rmiSB2MQpbuIod/g8FCdK1gP6ng7THn2A4F/7rGyC7sMUNqTR9DWfhWIkPwhzpz16bz8WDAAILkfCZ2zCTvdZKEaUbIGsZRdBuMTP+wnJJ4G42Lbacp+F/EXJFkBtLQPwPpJF3diYN5LrOcSL/DzkL0q2AJJeR3KZn/crQWfYDjvUz0O+omQL8zI/6Gckj+ZDfLafh3xFyRaCeKIf9TsN6el+FvIVJVsI4Sl+NF+C9kraLOldgk6TdKmo6yXt9McuBKf4BD8L+YrnZAtgLbub5BF+PleSvgbgE6mebjog+46eoYe0AcDFJP/E53M2hQs4yuv9OOQnzmQlE3Q7d/PMmQoGADyKP071dAXJN/gsVEOUrESS7qLY5Fru8ZnHGjdLutrPQ//r68vFbLHt8n69TS7qiwQP9/M5uII1XumHB6PtWqop3U9wic+6JelKgl/387KJ2sNHuIvHsae/QftB35XMttpyDONyAGcQXOwrFE5gjXf4YSfWshbJmp8vFoL2ALiD4MdY42afV1FfXS5a2zZgGDcTfONiL5ik3wK4x8+70PKDxYTgEoInSfpXa9nHbasd7Y+pmr4pmbXtGoLXElzls0WJeCyW4Jd+PCtiyo8WI5KJ5CUYxi02bpU+c/dFyaxtf9Ovq9jzQnBYD+l4P5+V8Bw/WswILscQ3q22nuazqii9ZLbVlkP4Rz8fCFM40o860RYNA3ihny92BNeJutTPq6L0kuEQvIfkUj8eCMTl2Ur+7hyGd5I8zI8HgvBmm7Rn+XEVlFoybdEwDGf7+aAguUzQNX4+E41rpah3+PmgIDhMsZL/r5RaMvwxjh7Yv5kzBM+2lt2g9sy/z3S3ltiEvVlJXyT6/721PEmq5J3GUp+TaUInIeEbfj6IJD2IhOsxhUkAOwgeLmglEtYTXOOPH0SCbk+1tNbP+125JWvrDABf9vMQZiJoR6qlyj3iKfdyMYQBECULA0Vb9v3GtbZ9ydq2xdr2ERu3k/1xvRQlCwPDxq2mw7SdiR8meDbBNQTfyCHeZm27JnsO2XPl/iYb1/kYwnV+PhtJV9L4fT/vJSV9oF9X/+dN0qdo/C8/7yUlXU5yhZ93spAbHzZpr4VhrNOfKel6JIyl1eknPluIcks23xsfwlrWebsf91Kv3nqupALenra2bZnrXdP53viwtr0GwhjJ5/rMk3QdyTHWOJ/F2zOKy8WwqKmtV0NodFMw7FsgcIGghk3YU302X1GysGhZy84W1CD5PJ91QvBCJDTszt58cTlKFhYlm7SzQDQIPt9n3SD4BjyMRi8+bV5uyaYwmAuDw3w96AczsQk7C4YGwTm95eCRvAiHYKN9yxb06b9ySzbU3X+0ECTt5BQ/6+eeTdirQGwk+QKfzQfFDTgEDZu0J/usW+WWLIQuSNpJY3O2O57WtjNBNEge5bOFILkBhoa17Ek+60a5JYvLxTALQXtIntdFwY6F8LleF2w/kheDuHo+D6zLLVlcLoYOJP2E4CXdfNGLU9wJ4D4/7yWCZ+vx+oifz6bckoVwEIJ+AqHJWucz2H4c5S4IrxM045eYe4XgOdkiiq5FyULfkXQPiGYaSXNacpdG0nYYmpJu9lkPPUHQCX7YSZQs9BVB9yKhmVbPrWD7pZG0nca/knSXz3pGeIYfdRIlC31D0n0Qmml1+ozPptN2dbxhxlHuAnCupK/4rCeIe/2ok1ggHErhFwgLWcHq6VOPPvLR1NYKQVtgeH8aSVf5fDqN63Albem08n6ezpzLJ8TjTBZKJ+in3RTMJux0SV8geDiID9mENfwx03GUu5j4eqF3ZzRB1+phzWnDjihZKJWk/wG6KNiknZY9aF6Ffc+tCKJhbdvoj52OqznJKV7ci99oku7iEl6WXph+57NOyi1ZPIweaIL2AnhTqqVP+mw6a9upNDZIHjN9TpIAGjYxS9FGuQuG8yTd4rNuCbqJwzyHR3K3z2ZTbsnCINsL4ZxUTzf6YDpr2XoIDRCrfYZ9z60SiIa17F0+my6NpjYSmpK+6rPZCLoZhiZXcYfPuhElC6UgeOmsBdtmp2SXiB13dSG7LNrq1IbmVjRJX4HQTCNpu8+6VW7JYlnVwGKNHX8jWctOyV5XqftsJgSHADSsZe/02XRpJLUgNAXd6jNP0i1MbKZ62uazuSi3ZCHMwCZsHYCNBEd81gnJoeyMtuCiSfoqEppczUmfzVWULPQVm7STs0vEUZ91g+AwiIZNWsfNOVI9TWSXjrf5TKZbs4fibZ/NR5Qs9A1r2ytg8y/YfgSHYRizVhdFA5rCH4om6bZs3WTPtg2OkoW+YC17efZVqWN9Nh8khwE0rG1v99l0qZ7GOcULJd0l6S4aL8zK1zNRslA6a9nLskvE43y2ECQPgTBmE52LxlHuonEtjWuzdY89FSULpdI2nZR9VSqXbXpJHpKtDLnCZ9NxlLvyKBiiZKFMmtBJmlKD4It81kskHwNhbLai5SVKFkph4/ZSDWkjyRl3GO21rGgNtfU2n+UtShYKZ217CYawkeKc3jBeKJKPlTRWdNGiZKFQamsFgM8TfLHPipAV7R0a1+E+y0uULBRGLa0B8AmChf0P7gn6PoQNed3kmEmULBTCttmJohoATvRZUbKCNdNI+hef5SlKFnJnk/ZiTKEx1/3IeknQf2dvX3/RZ3mLkoVc2bi9ONvhcl47ZPaCpB+UVTBEyUKebKudgIRGqQWDfgBDM9XTF3xWlChZyIXaOh5DaJB8ic+KIumHAJppNH3eZ0WKkoWes5a9SFKD5Et9VhRJP4LQTLVyC4YoWeg1m7AXZot9T/JZUST9CAljaSTd4LMyDMzHTTWulRjCvL/TMPCEJusc8+PpbNKOy25yvNxnRRH0YxjG0kj6Z5+VJc5kYXbdFKxtx2YvXJZXMOnu7DlY3xQMUbIwq24K1rJRAA2Sr/BZUQTdDWAs1dPnfFa2KFk4uO4LNkbwZJ8VRdLO7DlY3xUMUbJwUN0VbCQ7g5VXMGgnyWaqp1k3bS9LlCwcqJuCTVg9u4u4zmdFyba77Xo3zrJEycKjdVOwSatlnww4xWdFkXQPUvfb3ZYpShb+oIuCaVKrs7uI631WlKxgY/PdjbNoUbKwTxcFs5YdI1OD5Kk+K8pCt7stw+A8jN6iJViC0l4W7Gei9qZj031+Pp1N2CokjBE83WdFEXRvdhfx0z7rZwNTsjB/2q6VmtIYwVf6rCiC7kPCWDqmWgVDXC6G2WhcK7VXjVILpmy72woWDFGy0IlttaOV1CB5hs+KIuin2ftgHbe77WdRsjAjm7SjsvfByivY/v2kRztvd9vvomThANayF2S36c/0WVEk3c/E5mz7SVdBlCw8ik3YkdlKjlf5rCiS7gfQ5Gpe67MqipKF37Pt9nwkNAie5bOiCNqFhGaqp00+q6ooWQAA2DZ7HqfYIHi2z4oiaBf27XC5aAqGKFnAvpscz8UUGgBe7bOiCPpfEM1UT5/wWdWVW7IpLPWjUCz7tj032+HyNT4riqSfZWewjgXT93SYn1VBuSULpVJbKzCMBsHX+qwogn6WncGu8dl0amuF9qiSdxqjZAPKJuzPss+2lVcw6ecAmqmWPu6z6dTWCkFbgGquPS23ZEN40I9C/mzcnpN92ffPfVYUSQ+AsxfMJux0QV/IdoKp5M+LcksWCmfb7NnZbfpzfFYUSQ9kZ7CP+Ww6m7TTspdDV/msSqJkA8Qm7VmYQoPk63xWFEG/yJ6DfdRn09mEnZZ9w/EYn1VNlGxAWMuemS2VOtdnRZH0y+wuYueCte1Uko3FUDBEyQaDteyZ2VKp1/usKIJ+iYSxVE8f8dl0Nm6nAmiAWO2zqhqYlzY1rpUa0of9vNKEj6V6utGPp9OEnqGkBsG/8FlRJP0q+/Do1T6bzlq2HsAYyZrPsK+oO1ItVe732UCVbDF9C1/UVUxschUPeofWttrTOcwGgL/0WVEE/Sq7yfFPPpvOttkpMIwRrPtsv6qWLC4XK6ibgmm7jii9YNKDXRWsZadgqnPBqixKVjHdFMwm7U+1V6UWDMCvs+dgnQu2zdZlvxcXZcEQJauWbgqmtp6W3UU832cF+rWkZqqlq3wwnU3YumzD9hGfLSZRsoropmA2YU8V1CB5gc+KIuj/RDVTPXW8yWSTdnJ2Bhv12WJTbsliFX5XuirYnbY8W8lxoc+KIuk32XOwjgUDAAiXzaNgB/3372fllizWLs6qq4JtteV4GA2Cb/BZUQT9JnsO9iGfHcSwH3Shkn8pl1uy0FFXBfuWPQWHYCPJi3xWFEm7szNYtwUbKIP0nOxwAKXtozVXSto924Nmm7QnZ+v7NvisKIJ2Z7fpP+izTqxtWwiu8fNOqvqcbGBKtthYy56UrY642GdFkfRbEGNzLRgGrGRxuVhB2qJhEFeXWTAAgPDO+RRs0ETJquhQrOn0VSlJuyXdIWmzoI67tcyXTG9JI52fg4V9omQVJGrGTwZIuktTWpfq6fGpnk5I9XRmqqWn4hE8XdDX/PHzFQWbmyhZxWiLhgEc8H16SddzN1el0XRAmXgcd6ZaWifpUp/NVRRs7qJkFaNDdTrJZX5O8LNcyz1+Pl2qp48K83vdR9AeUW+Lgs1dlKxqiHV+JGhHt3dbuYQb5/U7zXBFWp3e78dhdlGyCtF39EQAByympXiTnx0Mj+RuGDb7+cEIekimt8cZbP6iZFXyME4keZQfA+jqLLYfh/hdP5uJpIcBNNNIep/PQveiZBUiaf0BszlcKv6e8DM/mpFweapFwRYqSlYR2qKlIGb69kXXl377yXS0n00n6RFB74hLxN6IklXF43EkwZV+DOLzfjSrhGP96FGEt6Zaeq8fh/mJklWEoAN2vhR0e1qdfujnndiEnQfhJX6OfWewKUnvijNYb0XJquPAvcOE//CjTrRdS0G8m+RjfAYAEP4u1dM/+HFYmChZBdiknUZwuZ8TvMPPPBu351jbNljLbtCUvkvyCH+MJJO0Mc5g+YiSVcMBl3eSHsDj0PZzAFBbyzSu861lX8YQ7iR4LclzZyoqAEC4LNXTe/w49EaUrAqEA1bck1ym3+m2/btPqq1l1rKLrG3fEHQ/hnAdyTMILvH/7HSxFjF/A/PSpr6tIzCMMj+TdlAybZ1pYS/2/Tc6HsB/+vl+kraC2A1gDcE5fTejzIIN0kubg1OyPv5Mt6jz0up0g59j3++xD1N8s58vhKQ7IGxKIzP/mUUYpJLF5WLJJP0IU/imnwOA7bBDYTjez+dK0m8F3SrorZJGUz2dUGbBBk2UrHzfTCPpXj8EADyCNQfb4WQ2gn4j6RaZ/h4Ja1ItrU+19IFUTxP+2JCvKFnZUsfFvSf6wSx+LelmSZdBWJPq6bQ0kj6YVqcZ70KGYkTJSiToxxRnvFRUW38Ezl4yQb+StFmmt2AIa1I9vTLV04dSPW3zx4ZyRMnKJHyTNd7jx9h35+/Eg23EIOgXkv5N0puwF2tTPZ2ZRtJVXMUd/thQvihZuWY8iwEAEx91FpP0c0E3SroUwtpUT2elero6HZvunH5c6D9RspJI2tnp95igcwXtFfTvkjaQfF6qpVenevpoqqeuXroM/WFwnpO1tULU5X5emincebAHwbbVlmMIJ5PczBof8PliMEjPyQamZKG/DFLJ4nIxhJxFyULIWZQshJxFyULIWZQshJxFyULIWZQshJxFyULIWZQshJxFyULIWZQshJxFyULIWZQshJxFyULIWZQshJxFyULIWZQshJxFyULIWZQshJxFyULIWZQshJxFyULIWZQshJxFyULIWZQshJxFyULIWZQshJxFyULIWZQshJxFyULIWZQshJxFyULIWZQshJxFyULIWZQshJxFyULIWZQshJzRD4qkcZ2PIVzn57MRtAPAg34eKkRYSXKpH3ci6PZUS2v9vN+VW7K2zgDwZT8PYSaCdqRaWuXn/S4uF0PIWZQshJyVWjKZlvhZCB1U8nd4qSWD8HM/CqGD3/lBFZRdsu/7UQgHJfzUj6qg1JLxHt4vaaufhzAjYsKPqqDckr2GUwC+6ucheJIe4BC/5OdVUGrJMp+WdLMfhrCfJAPxdq5i3PiYj1RP9wPYJOhen4WQ2ZRq6ZN+WBWllwz7inYrwb+V9IDPwmATdCMfx7f6eZWUuqzKs5aNALiE5Pk+C4NF0HYIm1I9bfJZ1fRVyfazcTsZQ1gP4EgIywEM+2PCovQAgPsAfJ3kjawxrmxCCCGEEEIIIYQQQgghhBBCCCGEEEIIIYQQQgghhBBCCCGEEEIIoRD/D0fzDv+YnaM+AAAAAElFTkSuQmCC;" vertex="1" parent="1">
          <mxGeometry x="110.73" y="472" width="99.54" height="100" as="geometry" />
        </mxCell>
        <mxCell id="99Vmx4YMKvBOmawWlfzG-10" value="&lt;span style=&quot;font-size: 13px;&quot;&gt;&lt;b&gt;会話スクリプト&lt;/b&gt;&lt;/span&gt;" style="text;strokeColor=none;align=center;fillColor=none;html=1;verticalAlign=middle;whiteSpace=wrap;rounded=0;" vertex="1" parent="1">
          <mxGeometry x="105.75" y="442" width="109.5" height="30" as="geometry" />
        </mxCell>
        <mxCell id="99Vmx4YMKvBOmawWlfzG-21" value="" style="edgeStyle=orthogonalEdgeStyle;rounded=0;orthogonalLoop=1;jettySize=auto;html=1;entryX=0;entryY=0.5;entryDx=0;entryDy=0;" edge="1" parent="1" source="99Vmx4YMKvBOmawWlfzG-16" target="99Vmx4YMKvBOmawWlfzG-42">
          <mxGeometry relative="1" as="geometry">
            <mxPoint x="-56" y="115" as="sourcePoint" />
            <mxPoint x="415" y="165" as="targetPoint" />
            <Array as="points" />
          </mxGeometry>
        </mxCell>
        <mxCell id="99Vmx4YMKvBOmawWlfzG-23" value="" style="edgeStyle=orthogonalEdgeStyle;rounded=0;orthogonalLoop=1;jettySize=auto;html=1;" edge="1" parent="1" source="99Vmx4YMKvBOmawWlfzG-20">
          <mxGeometry relative="1" as="geometry">
            <mxPoint x="750" y="160" as="targetPoint" />
          </mxGeometry>
        </mxCell>
        <mxCell id="99Vmx4YMKvBOmawWlfzG-20" value="GPT-4o" style="whiteSpace=wrap;html=1;rounded=1;" vertex="1" parent="1">
          <mxGeometry x="574" y="130" width="120" height="60" as="geometry" />
        </mxCell>
        <mxCell id="99Vmx4YMKvBOmawWlfzG-41" value="&lt;span style=&quot;color: rgb(0, 0, 0); font-family: Helvetica; font-size: 12px; font-style: normal; font-variant-ligatures: normal; font-variant-caps: normal; font-weight: 400; letter-spacing: normal; orphans: 2; text-align: center; text-indent: 0px; text-transform: none; widows: 2; word-spacing: 0px; -webkit-text-stroke-width: 0px; white-space: normal; text-decoration-thickness: initial; text-decoration-style: initial; text-decoration-color: initial; float: none; display: inline !important;&quot;&gt;新しい看護記録&lt;/span&gt;" style="text;whiteSpace=wrap;html=1;" vertex="1" parent="1">
          <mxGeometry x="750" y="145" width="120" height="30" as="geometry" />
        </mxCell>
        <mxCell id="99Vmx4YMKvBOmawWlfzG-48" value="" style="edgeStyle=orthogonalEdgeStyle;rounded=0;orthogonalLoop=1;jettySize=auto;html=1;" edge="1" parent="1" source="99Vmx4YMKvBOmawWlfzG-42" target="99Vmx4YMKvBOmawWlfzG-20">
          <mxGeometry relative="1" as="geometry">
            <Array as="points">
              <mxPoint x="530" y="120" />
              <mxPoint x="530" y="160" />
            </Array>
          </mxGeometry>
        </mxCell>
        <mxCell id="99Vmx4YMKvBOmawWlfzG-49" value="構造化テキスト" style="edgeLabel;html=1;align=center;verticalAlign=middle;resizable=0;points=[];" vertex="1" connectable="0" parent="99Vmx4YMKvBOmawWlfzG-48">
          <mxGeometry x="-0.6883" y="2" relative="1" as="geometry">
            <mxPoint x="23" y="2" as="offset" />
          </mxGeometry>
        </mxCell>
        <mxCell id="99Vmx4YMKvBOmawWlfzG-42" value="GPT-4o" style="whiteSpace=wrap;html=1;rounded=1;" vertex="1" parent="1">
          <mxGeometry x="294" y="85" width="120" height="60" as="geometry" />
        </mxCell>
        <mxCell id="99Vmx4YMKvBOmawWlfzG-45" value="" style="edgeStyle=orthogonalEdgeStyle;rounded=0;orthogonalLoop=1;jettySize=auto;html=1;entryX=0;entryY=0.5;entryDx=0;entryDy=0;" edge="1" parent="1" target="99Vmx4YMKvBOmawWlfzG-16">
          <mxGeometry relative="1" as="geometry">
            <mxPoint x="-56" y="115" as="sourcePoint" />
            <mxPoint x="264" y="115" as="targetPoint" />
            <Array as="points" />
          </mxGeometry>
        </mxCell>
        <mxCell id="99Vmx4YMKvBOmawWlfzG-46" value="音声のスクリプト" style="edgeLabel;html=1;align=center;verticalAlign=middle;resizable=0;points=[];" vertex="1" connectable="0" parent="99Vmx4YMKvBOmawWlfzG-45">
          <mxGeometry x="-0.0419" relative="1" as="geometry">
            <mxPoint x="237" as="offset" />
          </mxGeometry>
        </mxCell>
        <mxCell id="99Vmx4YMKvBOmawWlfzG-16" value="Whisper&lt;div&gt;or&lt;/div&gt;&lt;div&gt;gpt-4o-mini-transcribe&lt;/div&gt;" style="whiteSpace=wrap;html=1;rounded=1;" vertex="1" parent="1">
          <mxGeometry x="49.25" y="85" width="120" height="60" as="geometry" />
        </mxCell>
        <mxCell id="99Vmx4YMKvBOmawWlfzG-47" value="訪問看護時の対話&lt;br&gt;音声データ" style="edgeLabel;html=1;align=center;verticalAlign=middle;resizable=0;points=[];" vertex="1" connectable="0" parent="1">
          <mxGeometry x="-36" y="115" as="geometry" />
        </mxCell>
      </root>
    </mxGraphModel>
  </diagram>
</mxfile>
